<svg xmlns="http://www.w3.org/2000/svg" xmlns:xlink="http://www.w3.org/1999/xlink" width="500" zoomAndPan="magnify" viewBox="0 0 375 374.999991" height="500" preserveAspectRatio="xMidYMid meet" version="1.0"><defs><g/><clipPath id="195eafa3e3"><path d="M 189 93.382812 L 222 93.382812 L 222 166 L 189 166 Z M 189 93.382812 " clip-rule="nonzero"/></clipPath><clipPath id="a33b32f282"><path d="M 162 112 L 194 112 L 194 171.382812 L 162 171.382812 Z M 162 112 " clip-rule="nonzero"/></clipPath><clipPath id="dff57bb314"><path d="M 137.585938 130 L 178 130 L 178 171.382812 L 137.585938 171.382812 Z M 137.585938 130 " clip-rule="nonzero"/></clipPath><clipPath id="e0d62e3d6b"><path d="M 170 93.382812 L 238.085938 93.382812 L 238.085938 171.382812 L 170 171.382812 Z M 170 93.382812 " clip-rule="nonzero"/></clipPath></defs><rect x="-37.5" width="450" fill="#ffffff00" y="-37.499999" height="449.999989" fill-opacity="1"/><rect x="-37.5" width="450" fill="#ffffff00" y="-37.499999" height="449.999989" fill-opacity="1"/><g clip-path="url(#195eafa3e3)"><path fill="#ffc35a" d="M 195.546875 125.449219 L 204.21875 104.40625 L 196.492188 93.429688 L 189.449219 110.589844 Z M 221.886719 141.574219 L 214.164062 130.632812 L 205.960938 150.828125 L 212.054688 165.679688 Z M 203.757812 145.457031 L 212.496094 124.046875 L 204.816406 112.914062 L 197.644531 130.5625 L 203.757812 145.457031 " fill-opacity="1" fill-rule="nonzero"/></g><g clip-path="url(#a33b32f282)"><path fill="#c89132" d="M 162.476562 124.046875 L 181.785156 171.351562 L 193.898438 171.351562 L 170.15625 112.914062 L 162.476562 124.046875 " fill-opacity="1" fill-rule="nonzero"/></g><g clip-path="url(#dff57bb314)"><path fill="#c89132" d="M 153.085938 141.574219 L 163.6875 167.578125 L 137.589844 171.351562 L 177.34375 171.351562 L 160.808594 130.632812 L 153.085938 141.574219 " fill-opacity="1" fill-rule="nonzero"/></g><g clip-path="url(#e0d62e3d6b)"><path fill="#c89132" d="M 208.714844 167.105469 L 178.480469 93.429688 L 170.753906 104.40625 L 198.34375 171.351562 L 238.09375 171.351562 L 208.714844 167.105469 " fill-opacity="1" fill-rule="nonzero"/></g><g fill="#ffc35a" fill-opacity="1"><g transform="translate(104.984411, 231.787778)"><g><path d="M 17.902344 18.425781 C 27.0625 18.425781 33.167969 12.320312 33.167969 3.160156 L 33.167969 -26.324219 L 31.0625 -26.324219 L 31.0625 3.683594 C 31.0625 11.582031 25.796875 16.847656 17.902344 16.847656 C 10.003906 16.847656 4.738281 11.582031 4.738281 3.683594 C 4.738281 -4.210938 10.003906 -9.476562 17.902344 -9.476562 L 17.902344 -11.054688 C 8.738281 -11.054688 2.632812 -5.160156 2.632812 3.683594 C 2.632812 12.53125 8.738281 18.425781 17.902344 18.425781 Z M 17.902344 -16.320312 C 19.480469 -16.320312 20.796875 -17.636719 20.796875 -19.21875 C 20.796875 -20.796875 19.480469 -22.113281 17.902344 -22.113281 C 16.320312 -22.113281 15.003906 -20.796875 15.003906 -19.21875 C 15.003906 -17.636719 16.320312 -16.320312 17.902344 -16.320312 Z M 17.902344 -16.320312 "/></g></g></g><g fill="#ffc35a" fill-opacity="1"><g transform="translate(146.308529, 231.787778)"><g><path d="M 6.316406 0 L 6.316406 -36.855469 L 4.210938 -36.855469 L 4.210938 0 Z M 6.316406 0 "/></g></g></g><g fill="#ffc35a" fill-opacity="1"><g transform="translate(158.15387, 231.787778)"><g><path d="M 40.015625 -1.578125 L 34.75 -1.578125 C 31.589844 -1.578125 29.484375 -3.683594 29.484375 -6.84375 L 29.484375 -26.324219 L 27.378906 -26.324219 L 27.378906 -6.84375 C 27.378906 -3.683594 25.273438 -1.578125 22.113281 -1.578125 C 18.953125 -1.578125 16.847656 -3.683594 16.847656 -6.84375 L 16.847656 -26.324219 L 14.742188 -26.324219 L 14.742188 -6.84375 C 14.742188 -3.683594 12.636719 -1.578125 9.476562 -1.578125 L -1.054688 -1.578125 L -1.054688 0 L 9.476562 0 C 12.320312 0 14.585938 -1.210938 15.796875 -3.265625 C 17.007812 -1.210938 19.269531 0 22.113281 0 C 24.957031 0 27.21875 -1.210938 28.429688 -3.265625 C 29.640625 -1.210938 31.90625 0 34.75 0 L 42.121094 0 L 42.121094 -26.324219 L 40.015625 -26.324219 Z M 40.015625 -1.578125 "/></g></g></g><g fill="#ffc35a" fill-opacity="1"><g transform="translate(205.79486, 231.787778)"><g><path d="M 16.847656 0 L 16.847656 -36.855469 L 14.742188 -36.855469 L 14.742188 -1.578125 L -1.054688 -1.578125 L -1.054688 0 Z M 16.847656 0 "/></g></g></g><g fill="#ffc35a" fill-opacity="1"><g transform="translate(228.168332, 231.787778)"><g><path d="M 16.847656 0 L 16.847656 -26.324219 L 14.742188 -26.324219 L 14.742188 -1.578125 L -1.054688 -1.578125 L -1.054688 0 Z M 12.109375 11.054688 C 13.6875 11.054688 15.003906 9.742188 15.003906 8.160156 C 15.003906 6.582031 13.6875 5.265625 12.109375 5.265625 C 10.53125 5.265625 9.214844 6.582031 9.214844 8.160156 C 9.214844 9.742188 10.53125 11.054688 12.109375 11.054688 Z M 19.480469 11.054688 C 21.058594 11.054688 22.375 9.742188 22.375 8.160156 C 22.375 6.582031 21.058594 5.265625 19.480469 5.265625 C 17.902344 5.265625 16.585938 6.582031 16.585938 8.160156 C 16.585938 9.742188 17.902344 11.054688 19.480469 11.054688 Z M 19.480469 11.054688 "/></g></g></g><g fill="#ffc35a" fill-opacity="1"><g transform="translate(250.541805, 231.787778)"><g><path d="M 16.847656 0 L 16.847656 -26.324219 L 14.742188 -26.324219 L 14.742188 -1.578125 L -1.054688 -1.578125 L -1.054688 0 Z M 15.796875 11.054688 C 17.375 11.054688 18.691406 9.742188 18.691406 8.160156 C 18.691406 6.582031 17.375 5.265625 15.796875 5.265625 C 14.214844 5.265625 12.898438 6.582031 12.898438 8.160156 C 12.898438 9.742188 14.214844 11.054688 15.796875 11.054688 Z M 15.796875 11.054688 "/></g></g></g></svg>